<mxfile host="app.diagrams.net" modified="2024-04-29T10:31:48.946Z" agent="Mozilla/5.0 (Windows NT 10.0; Win64; x64) AppleWebKit/537.36 (KHTML, like Gecko) Chrome/124.0.0.0 Safari/537.36" etag="-FAo5xGWZIYm3OdOWsz2" version="24.3.1" type="github">
  <diagram name="Page-1" id="uEPDjz5CJtbaMqiPxm1H">
    <mxGraphModel dx="880" dy="468" grid="1" gridSize="10" guides="1" tooltips="1" connect="1" arrows="1" fold="1" page="1" pageScale="1" pageWidth="827" pageHeight="1169" math="0" shadow="0">
      <root>
        <mxCell id="0" />
        <mxCell id="1" parent="0" />
        <mxCell id="OdphLknFc0RvPJ_g4Yk2-4" value="" style="sketch=0;pointerEvents=1;shadow=0;dashed=0;html=1;strokeColor=none;fillColor=#505050;labelPosition=center;verticalLabelPosition=bottom;verticalAlign=top;outlineConnect=0;align=center;shape=mxgraph.office.users.administrator;" vertex="1" parent="1">
          <mxGeometry x="170" y="100" width="58" height="56" as="geometry" />
        </mxCell>
        <mxCell id="OdphLknFc0RvPJ_g4Yk2-40" value="" style="edgeStyle=orthogonalEdgeStyle;rounded=0;orthogonalLoop=1;jettySize=auto;html=1;elbow=vertical;" edge="1" parent="1" source="OdphLknFc0RvPJ_g4Yk2-5" target="OdphLknFc0RvPJ_g4Yk2-13">
          <mxGeometry relative="1" as="geometry" />
        </mxCell>
        <mxCell id="OdphLknFc0RvPJ_g4Yk2-5" value="Administrator" style="text;html=1;align=center;verticalAlign=middle;resizable=0;points=[];autosize=1;strokeColor=#6c8ebf;fillColor=#dae8fc;" vertex="1" parent="1">
          <mxGeometry x="154" y="180" width="90" height="30" as="geometry" />
        </mxCell>
        <mxCell id="OdphLknFc0RvPJ_g4Yk2-6" value="" style="outlineConnect=0;dashed=0;verticalLabelPosition=bottom;verticalAlign=top;align=center;html=1;shape=mxgraph.aws3.iam;fillColor=#759C3E;gradientColor=none;" vertex="1" parent="1">
          <mxGeometry x="580" y="110" width="42" height="81" as="geometry" />
        </mxCell>
        <mxCell id="OdphLknFc0RvPJ_g4Yk2-8" value="" style="endArrow=classic;html=1;rounded=0;" edge="1" parent="1">
          <mxGeometry relative="1" as="geometry">
            <mxPoint x="250" y="150" as="sourcePoint" />
            <mxPoint x="570" y="150" as="targetPoint" />
          </mxGeometry>
        </mxCell>
        <mxCell id="OdphLknFc0RvPJ_g4Yk2-9" value="Authun N Authn Z" style="edgeLabel;resizable=0;html=1;;align=center;verticalAlign=middle;fontColor=#000000;" connectable="0" vertex="1" parent="OdphLknFc0RvPJ_g4Yk2-8">
          <mxGeometry relative="1" as="geometry" />
        </mxCell>
        <object label="" id="OdphLknFc0RvPJ_g4Yk2-13">
          <mxCell style="sketch=0;points=[[0,0,0],[0.25,0,0],[0.5,0,0],[0.75,0,0],[1,0,0],[0,1,0],[0.25,1,0],[0.5,1,0],[0.75,1,0],[1,1,0],[0,0.25,0],[0,0.5,0],[0,0.75,0],[1,0.25,0],[1,0.5,0],[1,0.75,0]];outlineConnect=0;fontColor=#232F3E;fillColor=#ED7100;strokeColor=#ffffff;dashed=0;verticalLabelPosition=bottom;verticalAlign=top;align=center;html=1;fontSize=12;fontStyle=0;aspect=fixed;shape=mxgraph.aws4.resourceIcon;resIcon=mxgraph.aws4.ec2;" vertex="1" parent="1">
            <mxGeometry x="150" y="320" width="78" height="78" as="geometry" />
          </mxCell>
        </object>
        <mxCell id="OdphLknFc0RvPJ_g4Yk2-14" value="" style="sketch=0;points=[[0,0,0],[0.25,0,0],[0.5,0,0],[0.75,0,0],[1,0,0],[0,1,0],[0.25,1,0],[0.5,1,0],[0.75,1,0],[1,1,0],[0,0.25,0],[0,0.5,0],[0,0.75,0],[1,0.25,0],[1,0.5,0],[1,0.75,0]];points=[[0,0,0],[0.25,0,0],[0.5,0,0],[0.75,0,0],[1,0,0],[0,1,0],[0.25,1,0],[0.5,1,0],[0.75,1,0],[1,1,0],[0,0.25,0],[0,0.5,0],[0,0.75,0],[1,0.25,0],[1,0.5,0],[1,0.75,0]];outlineConnect=0;fontColor=#232F3E;fillColor=#E7157B;strokeColor=#ffffff;dashed=0;verticalLabelPosition=bottom;verticalAlign=top;align=center;html=1;fontSize=12;fontStyle=0;aspect=fixed;shape=mxgraph.aws4.resourceIcon;resIcon=mxgraph.aws4.systems_manager;" vertex="1" parent="1">
          <mxGeometry x="510" y="320" width="78" height="78" as="geometry" />
        </mxCell>
        <mxCell id="OdphLknFc0RvPJ_g4Yk2-16" value="Amazon EC2 Instance" style="text;html=1;align=center;verticalAlign=middle;resizable=0;points=[];autosize=1;strokeColor=#6c8ebf;fillColor=#dae8fc;" vertex="1" parent="1">
          <mxGeometry x="113" y="410" width="140" height="30" as="geometry" />
        </mxCell>
        <mxCell id="OdphLknFc0RvPJ_g4Yk2-17" value="Amazon System Manager" style="text;html=1;align=center;verticalAlign=middle;resizable=0;points=[];autosize=1;strokeColor=#6c8ebf;fillColor=#dae8fc;" vertex="1" parent="1">
          <mxGeometry x="469" y="410" width="160" height="30" as="geometry" />
        </mxCell>
        <mxCell id="OdphLknFc0RvPJ_g4Yk2-18" value="AWS IAM" style="text;html=1;align=center;verticalAlign=middle;resizable=0;points=[];autosize=1;strokeColor=#6c8ebf;fillColor=#dae8fc;" vertex="1" parent="1">
          <mxGeometry x="580" y="210" width="80" height="30" as="geometry" />
        </mxCell>
        <mxCell id="OdphLknFc0RvPJ_g4Yk2-32" value="" style="endArrow=classic;html=1;rounded=0;elbow=vertical;" edge="1" parent="1">
          <mxGeometry relative="1" as="geometry">
            <mxPoint x="490" y="360" as="sourcePoint" />
            <mxPoint x="250" y="360" as="targetPoint" />
          </mxGeometry>
        </mxCell>
        <mxCell id="OdphLknFc0RvPJ_g4Yk2-33" value="Manages" style="edgeLabel;resizable=0;html=1;;align=center;verticalAlign=middle;" connectable="0" vertex="1" parent="OdphLknFc0RvPJ_g4Yk2-32">
          <mxGeometry relative="1" as="geometry" />
        </mxCell>
        <mxCell id="OdphLknFc0RvPJ_g4Yk2-37" value="" style="endArrow=classic;html=1;rounded=0;elbow=vertical;" edge="1" parent="1">
          <mxGeometry relative="1" as="geometry">
            <mxPoint x="220" y="170" as="sourcePoint" />
            <mxPoint x="460" y="350" as="targetPoint" />
          </mxGeometry>
        </mxCell>
        <mxCell id="OdphLknFc0RvPJ_g4Yk2-38" value="Execute Commands" style="edgeLabel;resizable=0;html=1;;align=center;verticalAlign=middle;" connectable="0" vertex="1" parent="OdphLknFc0RvPJ_g4Yk2-37">
          <mxGeometry relative="1" as="geometry" />
        </mxCell>
        <mxCell id="OdphLknFc0RvPJ_g4Yk2-39" value="Create amanaged EC2 Instance" style="edgeLabel;html=1;align=center;verticalAlign=middle;resizable=0;points=[];rotation=0;" vertex="1" connectable="0" parent="OdphLknFc0RvPJ_g4Yk2-37">
          <mxGeometry x="-0.3" relative="1" as="geometry">
            <mxPoint x="-134" y="27" as="offset" />
          </mxGeometry>
        </mxCell>
        <mxCell id="OdphLknFc0RvPJ_g4Yk2-43" value="&lt;b&gt;&lt;font color=&quot;#3333ff&quot; style=&quot;font-size: 24px;&quot;&gt;EC2 Instance With AWS System Manger&lt;/font&gt;&lt;/b&gt;" style="text;html=1;align=center;verticalAlign=middle;resizable=0;points=[];autosize=1;strokeColor=none;fillColor=none;" vertex="1" parent="1">
          <mxGeometry x="160" y="23" width="480" height="40" as="geometry" />
        </mxCell>
      </root>
    </mxGraphModel>
  </diagram>
</mxfile>
